<svg xmlns="http://www.w3.org/2000/svg" width="36" height="36" viewBox="0 0 36 36">
  <g id="그룹_107940" data-name="그룹 107940" transform="translate(-1815 -841)">
    <path id="빼기_4" data-name="빼기 4" d="M1771-8471a18,18,0,0,1,18,18,18,18,0,0,1-18,18,18,18,0,0,1-18-18A18,18,0,0,1,1771-8471Z" transform="translate(62 9312)" fill="#d9d9d9"/>
    <path id="패스_111523" data-name="패스 111523" d="M-1.9-13.524a4.03,4.03,0,0,0-1.043-.754.345.345,0,0,0-.4.066l-.127.127a1.5,1.5,0,0,0-.429.88.348.348,0,0,0,.19.357,2.9,2.9,0,0,1,.66.47,2.435,2.435,0,0,1,0,3.439L-5.227-6.762a2.431,2.431,0,0,1-3.439,0,2.431,2.431,0,0,1,0-3.439l1.327-1.327a.345.345,0,0,0,.093-.324,6.038,6.038,0,0,1-.137-1.1.347.347,0,0,0-.593-.237l-1.836,1.837a4.05,4.05,0,0,0,0,5.732,4.05,4.05,0,0,0,5.732,0C-1.7-7.994-1.8-7.882-1.621-8.106A4.058,4.058,0,0,0-1.9-13.524Zm4.537-4.538a4.05,4.05,0,0,0-5.732,0c-2.378,2.378-2.278,2.266-2.459,2.49a4.058,4.058,0,0,0,.282,5.418A4.03,4.03,0,0,0-4.232-9.4a.345.345,0,0,0,.4-.066l.127-.127a1.5,1.5,0,0,0,.429-.88.348.348,0,0,0-.19-.357,2.9,2.9,0,0,1-.66-.47,2.435,2.435,0,0,1,0-3.439l2.177-2.177a2.431,2.431,0,0,1,3.439,0,2.431,2.431,0,0,1,0,3.439L.161-12.15a.345.345,0,0,0-.093.324,6.039,6.039,0,0,1,.137,1.1.347.347,0,0,0,.593.237L2.634-12.33A4.05,4.05,0,0,0,2.634-18.062Z" transform="translate(1837 871.25)" fill="#aaa"/>
  </g>
</svg>
