<svg xmlns="http://www.w3.org/2000/svg" width="36" height="36" viewBox="0 0 36 36">
  <g id="그룹_107938" data-name="그룹 107938" transform="translate(-1717 -841)">
    <path id="빼기_2" data-name="빼기 2" d="M1771-8471a18,18,0,0,1,18,18,18,18,0,0,1-18,18,18,18,0,0,1-18-18A18,18,0,0,1,1771-8471Z" transform="translate(-36 9312)" fill="#d9d9d9"/>
    <path id="패스_111521" data-name="패스 111521" d="M1.589-16.39H3.211v-2.739A21.672,21.672,0,0,0,.849-19.25,3.69,3.69,0,0,0-3.091-15.2v2.413H-5.672v3.062h2.581v7.705H.072V-9.728H2.548l.394-3.062H.072V-14.9C.072-15.784.317-16.39,1.589-16.39Z" transform="translate(1736.672 869.25)" fill="#aaa"/>
  </g>
</svg>
