<svg xmlns="http://www.w3.org/2000/svg" width="36" height="36" viewBox="0 0 36 36">
  <g id="그룹_107937" data-name="그룹 107937" transform="translate(-1670 -841)">
    <path id="빼기_1" data-name="빼기 1" d="M1771-8471a18,18,0,0,1,18,18,18,18,0,0,1-18,18,18,18,0,0,1-18-18A18,18,0,0,1,1771-8471Z" transform="translate(-83 9312)" fill="#d9d9d9"/>
    <path id="패스_111520" data-name="패스 111520" d="M-3.1-17.875c-4.364,0-7.9,2.874-7.9,6.42A5.7,5.7,0,0,0-9.241-7.421a7.852,7.852,0,0,1-1.691,2.957.245.245,0,0,0-.046.269.242.242,0,0,0,.225.148,7.059,7.059,0,0,0,4.34-1.586,9.413,9.413,0,0,0,3.315.6c4.364,0,7.9-2.874,7.9-6.42S1.266-17.875-3.1-17.875Z" transform="translate(1692 869.875)" fill="#aaa"/>
  </g>
</svg>
