<svg xmlns="http://www.w3.org/2000/svg" width="36" height="36" viewBox="0 0 36 36">
  <g id="그룹_107939" data-name="그룹 107939" transform="translate(-1766 -841)">
    <path id="빼기_3" data-name="빼기 3" d="M1771-8471a18,18,0,0,1,18,18,18,18,0,0,1-18,18,18,18,0,0,1-18-18A18,18,0,0,1,1771-8471Z" transform="translate(13 9312)" fill="#d9d9d9"/>
    <path id="패스_111522" data-name="패스 111522" d="M3.769-13.857A7.241,7.241,0,0,0,5.459-15.6a6.754,6.754,0,0,1-1.94.521A3.36,3.36,0,0,0,5-16.934a6.632,6.632,0,0,1-2.138.814A3.361,3.361,0,0,0,.4-17.184a3.367,3.367,0,0,0-3.369,3.369,3.8,3.8,0,0,0,.083.772,9.576,9.576,0,0,1-6.946-3.525,3.343,3.343,0,0,0-.459,1.7,3.366,3.366,0,0,0,1.5,2.806,3.392,3.392,0,0,1-1.523-.428v.042a3.369,3.369,0,0,0,2.7,3.306,3.562,3.562,0,0,1-.887.115,4.246,4.246,0,0,1-.636-.052,3.375,3.375,0,0,0,3.15,2.336A6.747,6.747,0,0,1-10.165-5.3a6.972,6.972,0,0,1-.814-.042A9.52,9.52,0,0,0-5.805-3.834,9.519,9.519,0,0,0,3.78-13.419C3.78-13.565,3.78-13.711,3.769-13.857Z" transform="translate(1786.979 870.184)" fill="#aaa"/>
  </g>
</svg>
